<?xml version="1.0" encoding="UTF-8"?>
<svg version="1.1" xmlns="http://www.w3.org/2000/svg" width="360" height="360">
<path d="M0 0 C0.99302124 0.17644043 0.99302124 0.17644043 2.00610352 0.35644531 C3.87433225 0.72654154 5.71995632 1.20554293 7.5625 1.6875 C8.65820312 1.95046875 9.75390625 2.2134375 10.8828125 2.484375 C15.51624601 6.29378681 15.30790107 11.91287681 16 17.625 C16.17208984 18.81802734 16.34417969 20.01105469 16.52148438 21.24023438 C17.83160136 30.83158465 17.83160136 30.83158465 16.5625 34.6875 C13.0975 35.1825 13.0975 35.1825 9.5625 35.6875 C9.09070313 34.05941406 9.09070313 34.05941406 8.609375 32.3984375 C8.17761115 30.95296723 7.74528975 29.50766343 7.3125 28.0625 C7.10753906 27.34964844 6.90257812 26.63679688 6.69140625 25.90234375 C4.85107247 19.8236655 2.39460419 13.87240796 -3.4375 10.6875 C-16.55185686 7.72619361 -26.57567039 8.56733178 -38.25 15.3125 C-42.049604 19.43778434 -44.21250099 24.43572863 -44.6015625 30.05859375 C-44.02578714 37.9686505 -40.53014889 44.38410169 -34.80859375 49.7734375 C-29.33806704 54.18951342 -23.35764691 57.90973108 -17.4375 61.6875 C-16.47199219 62.30753906 -15.50648438 62.92757812 -14.51171875 63.56640625 C-11.24649034 65.65131506 -7.97632012 67.72793973 -4.68896484 69.77783203 C-2.80985009 70.95037208 -0.93608602 72.13115085 0.9375 73.3125 C1.52088135 73.67287354 2.1042627 74.03324707 2.70532227 74.40454102 C6.4797793 76.7943955 9.51244272 79.43340801 12.5625 82.6875 C13.11035156 83.24953125 13.65820312 83.8115625 14.22265625 84.390625 C22.80835318 93.86119877 24.17109117 104.26895044 23.5625 116.6875 C22.62296545 125.2357242 18.0721083 133.74638621 11.8125 139.5625 C1.19199569 148.01431355 -9.75999049 150.06323015 -23 150 C-24.15081055 149.99726074 -25.30162109 149.99452148 -26.48730469 149.99169922 C-37.47486367 149.85717661 -47.01895219 148.19106646 -57.4375 144.6875 C-57.58372803 143.92606689 -57.72995605 143.16463379 -57.88061523 142.38012695 C-58.54521422 138.92004697 -59.21010411 135.46002294 -59.875 132 C-60.10509766 130.80181641 -60.33519531 129.60363281 -60.57226562 128.36914062 C-60.79462891 127.21220703 -61.01699219 126.05527344 -61.24609375 124.86328125 C-61.45032959 123.80020752 -61.65456543 122.73713379 -61.86499023 121.6418457 C-62.37920848 118.98830413 -62.90412298 116.33724848 -63.4375 113.6875 C-61.13381264 112.62097808 -58.79731813 111.62328995 -56.4375 110.6875 C-54.4375 111.6875 -54.4375 111.6875 -53.7265625 113.69140625 C-53.50742188 114.53574219 -53.28828125 115.38007813 -53.0625 116.25 C-50.95930527 123.64817241 -48.0251727 131.9793922 -41.1015625 136.06640625 C-30.73800826 141.40014164 -20.69586316 142.23111594 -9.4375 138.6875 C-2.7358814 135.6348054 2.8854559 130.77994549 5.70703125 123.89453125 C7.99987864 115.29897094 7.26817794 106.69176434 3.5625 98.6875 C3.2038558 97.36075088 2.86405132 96.0283787 2.5625 94.6875 C1.9025 94.6875 1.2425 94.6875 0.5625 94.6875 C0.5625 94.0275 0.5625 93.3675 0.5625 92.6875 C0.01207031 92.43355469 -0.53835937 92.17960937 -1.10546875 91.91796875 C-3.83111936 90.47981139 -6.23647429 88.78565764 -8.75 87 C-16.03441821 81.86757417 -23.52402198 77.05647036 -31.03833008 72.26879883 C-44.2600345 63.75010918 -54.36304965 55.91085105 -59.4375 40.6875 C-60.26363179 29.51440618 -59.46106219 20.48244957 -52.375 11.4375 C-39.17068059 -2.5903146 -17.73537338 -3.22051599 0 0 Z " fill="#F80C11" transform="translate(149.4375,105.3125)"/>
<path d="M0 0 C17.49920991 17.5584289 20.95200322 37.78833088 21.32373047 61.71191406 C21.24799763 80.93488341 17.32868909 100.9537191 3.76171875 115.23828125 C-12.67944792 130.84034531 -35.12411564 132.76857293 -56.796875 132.66015625 C-57.88969788 132.6587413 -58.98252075 132.65732635 -60.10845947 132.65586853 C-63.55150249 132.65033294 -66.9944771 132.63779306 -70.4375 132.625 C-72.79166572 132.61997666 -75.14583247 132.61541522 -77.5 132.61132812 C-83.22918946 132.60038473 -88.95833984 132.58371234 -94.6875 132.5625 C-91.6875 129.5625 -88.6875 126.5625 -85.6875 123.5625 C-85.6875 124.2225 -85.6875 124.8825 -85.6875 125.5625 C-80.74698289 125.3465317 -75.8074263 125.11578715 -70.86816406 124.87280273 C-69.19679349 124.79249137 -67.52524186 124.71584275 -65.85351562 124.64331055 C-56.79695088 124.24776781 -47.87060625 123.6144411 -38.91796875 122.14453125 C-38.19666779 122.0271611 -37.47536682 121.90979095 -36.73220825 121.78886414 C-26.16071961 119.92266503 -15.30624105 116.38824825 -8.5625 107.6875 C-7.89992188 106.84445313 -7.23734375 106.00140625 -6.5546875 105.1328125 C6.51877115 87.13629411 6.11611008 60.61826034 3.00390625 39.4609375 C0.48268385 25.24523157 -4.96692255 11.97743764 -16.74609375 2.9921875 C-30.10863132 -5.19696397 -46.4511144 -3.97136099 -61.5 -4.125 C-63.75327438 -4.15822935 -66.00653048 -4.19272405 -68.25976562 -4.22851562 C-73.73555156 -4.31277193 -79.21135711 -4.38138556 -84.6875 -4.4375 C-86.04189668 -7.14629335 -85.75251451 -9.44683268 -85.6875 -12.4375 C-80.01330022 -12.58135403 -74.33906562 -12.72371679 -68.66479492 -12.86474609 C-66.73770151 -12.91284676 -64.81061793 -12.96134259 -62.88354492 -13.01025391 C-60.10077411 -13.08081317 -57.31797014 -13.14991323 -54.53515625 -13.21875 C-53.25959618 -13.25156067 -53.25959618 -13.25156067 -51.95826721 -13.28503418 C-33.51866512 -13.73515333 -14.61999504 -12.72644147 0 0 Z " fill="#171717" transform="translate(252.6875,119.4375)"/>
<path d="M0 0 C0.66201416 0.11762695 1.32402832 0.23525391 2.00610352 0.35644531 C3.87433225 0.72654154 5.71995632 1.20554293 7.5625 1.6875 C8.65820312 1.95046875 9.75390625 2.2134375 10.8828125 2.484375 C15.51624601 6.29378681 15.30790107 11.91287681 16 17.625 C16.17208984 18.81802734 16.34417969 20.01105469 16.52148438 21.24023438 C17.83160136 30.83158465 17.83160136 30.83158465 16.5625 34.6875 C13.0975 35.1825 13.0975 35.1825 9.5625 35.6875 C9.09070313 34.05941406 9.09070313 34.05941406 8.609375 32.3984375 C8.17761115 30.95296723 7.74528975 29.50766343 7.3125 28.0625 C7.10753906 27.34964844 6.90257812 26.63679688 6.69140625 25.90234375 C4.85107247 19.8236655 2.39460419 13.87240796 -3.4375 10.6875 C-15.87236144 7.87962806 -26.26297686 8.13003732 -37.33984375 14.83984375 C-38.72732183 15.75721161 -40.08633939 16.71743597 -41.4375 17.6875 C-41.9325 15.2125 -41.9325 15.2125 -42.4375 12.6875 C-43.324375 12.996875 -44.21125 13.30625 -45.125 13.625 C-47.90459155 14.5165671 -50.56886375 15.18127007 -53.4375 15.6875 C-53.7675 17.9975 -54.0975 20.3075 -54.4375 22.6875 C-55.0975 22.6875 -55.7575 22.6875 -56.4375 22.6875 C-56.4375 29.6175 -56.4375 36.5475 -56.4375 43.6875 C-55.7775 43.6875 -55.1175 43.6875 -54.4375 43.6875 C-54.4375 45.0075 -54.4375 46.3275 -54.4375 47.6875 C-53.7775 47.6875 -53.1175 47.6875 -52.4375 47.6875 C-52.334375 48.450625 -52.23125 49.21375 -52.125 50 C-51.39385961 52.85809424 -50.66798087 53.84492885 -48.4375 55.6875 C-48.7675 56.6775 -49.0975 57.6675 -49.4375 58.6875 C-57.8262929 48.23544412 -60.38483699 39.08555176 -59.4375 25.6875 C-57.59143514 17.34684553 -52.89010566 10.63841686 -45.78515625 5.9296875 C-31.57794943 -2.13860279 -15.86772272 -2.88137462 0 0 Z " fill="#F0070C" transform="translate(149.4375,105.3125)"/>
<path d="M0 0 C0.80859375 2.00390625 0.80859375 2.00390625 1.4375 4.5625 C3.45996532 11.93607148 6.38928591 20.34768286 13.3359375 24.34375 C15.86768797 25.62076197 18.42093663 26.8220624 21 28 C22.3360305 28.66124483 23.67038052 29.32595679 25 30 C23.93458984 30.07347656 23.93458984 30.07347656 22.84765625 30.1484375 C21.92855469 30.22320312 21.00945312 30.29796875 20.0625 30.375 C18.68771484 30.47941406 18.68771484 30.47941406 17.28515625 30.5859375 C16.53105469 30.72257812 15.77695313 30.85921875 15 31 C14.67 31.66 14.34 32.32 14 33 C15.485 33.495 15.485 33.495 17 34 C17 34.66 17 35.32 17 36 C21.25435079 35.8820238 25.50845821 35.7577963 29.76245117 35.62768555 C31.2106424 35.5842837 32.65888654 35.54261256 34.10717773 35.50268555 C36.18489559 35.44510938 38.26234573 35.38137972 40.33984375 35.31640625 C42.21724243 35.26141968 42.21724243 35.26141968 44.13256836 35.20532227 C46.89630504 35.32196094 46.89630504 35.32196094 48 34 C49.66617115 33.95936168 51.33388095 33.957279 53 34 C53 33.34 53 32.68 53 32 C54.32 32 55.64 32 57 32 C57 32.66 57 33.32 57 34 C38.74597219 42.27713002 15.44893901 39.20403967 -3 33 C-3.14622803 32.23856689 -3.29245605 31.47713379 -3.44311523 30.69262695 C-4.10771422 27.23254697 -4.77260411 23.77252294 -5.4375 20.3125 C-5.66759766 19.11431641 -5.89769531 17.91613281 -6.13476562 16.68164062 C-6.46831055 14.94624023 -6.46831055 14.94624023 -6.80859375 13.17578125 C-7.01282959 12.11270752 -7.21706543 11.04963379 -7.42749023 9.9543457 C-7.94170848 7.30080413 -8.46662298 4.64974848 -9 2 C-3.375 -1.125 -3.375 -1.125 0 0 Z " fill="#F80308" transform="translate(95,217)"/>
<path d="M0 0 C0.26721343 4.80984177 0.00769197 8.3293554 -1.625 12.875 C-3.45115459 18.42173125 -2.49640196 22.48793709 -1 28 C-0.65549886 29.99810662 -0.31622777 31.99722415 0 34 C-1.485 34.495 -1.485 34.495 -3 35 C-3.495 37.475 -3.495 37.475 -4 40 C-8.75 41.125 -8.75 41.125 -11 40 C-11 38.68 -11 37.36 -11 36 C-11.66 36 -12.32 36 -13 36 C-13 34.68 -13 33.36 -13 32 C-13.66 32 -14.32 32 -15 32 C-15 25.07 -15 18.14 -15 11 C-14.34 11 -13.68 11 -13 11 C-12.67 8.69 -12.34 6.38 -12 4 C-2.28571429 0 -2.28571429 0 0 0 Z " fill="#FB0409" transform="translate(108,117)"/>
<path d="M0 0 C2.04296875 0.4609375 2.04296875 0.4609375 4.1875 1.375 C5.26064453 1.81972656 5.26064453 1.81972656 6.35546875 2.2734375 C6.89816406 2.51320312 7.44085938 2.75296875 8 3 C7.67 3.99 7.34 4.98 7 6 C2.57249177 7.98936201 -1.33869131 8.23642144 -6.1484375 8.1953125 C-6.80582916 8.1924826 -7.46322083 8.18965271 -8.14053345 8.18673706 C-10.21888233 8.17563447 -12.29678366 8.15054986 -14.375 8.125 C-15.79296248 8.11495731 -17.21093179 8.10583373 -18.62890625 8.09765625 C-22.08608037 8.07572805 -25.54299642 8.04126818 -29 8 C-29 7.34 -29 6.68 -29 6 C-30.98 6 -32.96 6 -35 6 C-34.01 5.67 -33.02 5.34 -32 5 C-31.67 4.01 -31.34 3.02 -31 2 C-30.16750732 2.01047363 -29.33501465 2.02094727 -28.47729492 2.03173828 C-25.38550844 2.06584442 -22.29381792 2.09091076 -19.2019043 2.10986328 C-17.20680382 2.12485495 -15.21179054 2.15026731 -13.21679688 2.17578125 C-11.96318359 2.18222656 -10.70957031 2.18867188 -9.41796875 2.1953125 C-8.26063232 2.20578613 -7.1032959 2.21625977 -5.91088867 2.22705078 C-2.80578827 2.22319863 -2.80578827 2.22319863 0 0 Z " fill="#F60408" transform="translate(141,245)"/>
<path d="M0 0 C2.49361571 1.20381448 4.68143083 2.45428722 7 4 C7 5.32 7 6.64 7 8 C7.66 8 8.32 8 9 8 C9.66 6.35 10.32 4.7 11 3 C11.99 3.33 12.98 3.66 14 4 C14.66 2.68 15.32 1.36 16 0 C16.53373082 3.24801825 17.04971268 6.49861491 17.5625 9.75 C17.71396484 10.67039062 17.86542969 11.59078125 18.02148438 12.5390625 C18.16005859 13.42851562 18.29863281 14.31796875 18.44140625 15.234375 C18.57232666 16.05131836 18.70324707 16.86826172 18.83813477 17.70996094 C19.00431883 20.06110207 18.70259545 21.76426496 18 24 C15.69 24.33 13.38 24.66 11 25 C10.68546875 23.91460937 10.3709375 22.82921875 10.046875 21.7109375 C9.61511115 20.26546723 9.18278975 18.82016343 8.75 17.375 C8.54503906 16.66214844 8.34007812 15.94929687 8.12890625 15.21484375 C6.7192071 10.55856475 4.90797231 6.96647423 2 3 C1.34 2.01 0.68 1.02 0 0 Z " fill="#EE262A" transform="translate(148,116)"/>
<path d="M0 0 C1.83981445 0.05414063 1.83981445 0.05414063 3.71679688 0.109375 C12.71386625 0.48528334 12.71386625 0.48528334 15.05737305 2.41357422 C15.61678589 3.13697998 15.61678589 3.13697998 16.1875 3.875 C12.76876779 4.63854749 9.56228808 5.01476644 6.0625 5.0859375 C5.10859375 5.11429687 4.1546875 5.14265625 3.171875 5.171875 C1.18248072 5.22395338 -0.80713323 5.26822626 -2.796875 5.3046875 C-8.00446759 5.47358239 -11.50017836 5.66622523 -15.8125 8.875 C-18.5625 9.125 -18.5625 9.125 -20.8125 8.875 C-21.8125 7.875 -21.8125 7.875 -21.875 5.3125 C-21.854375 4.508125 -21.83375 3.70375 -21.8125 2.875 C-14.48845062 -0.64565138 -8.01227949 -0.39355564 0 0 Z " fill="#F90307" transform="translate(133.8125,106.125)"/>
<path d="M0 0 C0.99 0 1.98 0 3 0 C3 3.96 3 7.92 3 12 C3.99 12.33 4.98 12.66 6 13 C7.03125 13.680625 8.0625 14.36125 9.125 15.0625 C13.34238517 17.56403253 17.22332869 17.38993235 22 17 C22 17.66 22 18.32 22 19 C26.25435079 18.8820238 30.50845821 18.7577963 34.76245117 18.62768555 C36.2106424 18.5842837 37.65888654 18.54261256 39.10717773 18.50268555 C41.18489559 18.44510938 43.26234573 18.38137972 45.33984375 18.31640625 C46.59144287 18.27974854 47.84304199 18.24309082 49.13256836 18.20532227 C51.89630504 18.32196094 51.89630504 18.32196094 53 17 C54.66617115 16.95936168 56.33388095 16.957279 58 17 C58 16.34 58 15.68 58 15 C59.32 15 60.64 15 62 15 C62 15.66 62 16.32 62 17 C45.91014545 24.29580449 24.68599736 22.81157067 8 18 C6.90945312 17.72285156 5.81890625 17.44570312 4.6953125 17.16015625 C2 16 2 16 0.9765625 14.08203125 C0.86054687 13.33308594 0.74453125 12.58414063 0.625 11.8125 C0.49609375 11.01585937 0.3671875 10.21921875 0.234375 9.3984375 C-0.07566464 6.22569856 -0.13554493 3.18530594 0 0 Z " fill="#E14A4E" transform="translate(90,234)"/>
<path d="M0 0 C0 0.66 0 1.32 0 2 C-1.64351457 3.36176922 -3.31522656 4.68962066 -5 6 C-5.886875 6.9075 -6.77375 7.815 -7.6875 8.75 C-10 11 -10 11 -12 11 C-12.33 13.31 -12.66 15.62 -13 18 C-13.66 18 -14.32 18 -15 18 C-15 24.93 -15 31.86 -15 39 C-14.34 39 -13.68 39 -13 39 C-13 40.32 -13 41.64 -13 43 C-12.34 43 -11.68 43 -11 43 C-10.896875 43.763125 -10.79375 44.52625 -10.6875 45.3125 C-9.95635961 48.17059424 -9.23048087 49.15742885 -7 51 C-7.33 51.99 -7.66 52.98 -8 54 C-16.3887929 43.54794412 -18.94733699 34.39805176 -18 21 C-16.1351342 12.57440149 -11.1680711 5.96396167 -4.1875 1 C-2 0 -2 0 0 0 Z " fill="#E75758" transform="translate(108,110)"/>
<path d="M0 0 C0 3.51716303 -0.82445585 4.37121748 -3 7 C-2.67 6.67 -2.34 6.34 -2 6 C1 6 1 6 4 7 C4.33 5.68 4.66 4.36 5 3 C5.1546875 3.9590625 5.1546875 3.9590625 5.3125 4.9375 C5.6528125 5.9584375 5.6528125 5.9584375 6 7 C6.99 7.33 7.98 7.66 9 8 C4.97057954 11.76663217 4.97057954 11.76663217 2 13 C-1.58166348 12.58340168 -4.68587589 11.37895374 -8 10 C-8.99 9.67 -9.98 9.34 -11 9 C-11.99 9.66 -12.98 10.32 -14 11 C-16.60245498 11.14221065 -19.09117684 11.18802932 -21.6875 11.125 C-22.7403418 11.11146484 -22.7403418 11.11146484 -23.81445312 11.09765625 C-25.54311525 11.07413704 -27.27160145 11.03826713 -29 11 C-29 10.67 -29 10.34 -29 10 C-27.85402344 9.80664062 -26.70804687 9.61328125 -25.52734375 9.4140625 C-23.99736117 9.15124341 -22.46741518 8.88821121 -20.9375 8.625 C-20.18533203 8.49867188 -19.43316406 8.37234375 -18.65820312 8.2421875 C-8.17346416 6.48841373 -8.17346416 6.48841373 0 0 Z M1 2 C1.33 2.99 1.66 3.98 2 5 C1.34 4.67 0.68 4.34 0 4 C0.33 3.34 0.66 2.68 1 2 Z " fill="#EB080E" transform="translate(152,237)"/>
<path d="M0 0 C0.66201416 0.11762695 1.32402832 0.23525391 2.00610352 0.35644531 C6.2556144 1.19827369 9.7771762 2.59884375 13.5625 4.6875 C13.2325 6.0075 12.9025 7.3275 12.5625 8.6875 C12.0675 6.7075 12.0675 6.7075 11.5625 4.6875 C10.93601563 4.62691406 10.30953125 4.56632812 9.6640625 4.50390625 C8.84679687 4.42011719 8.02953125 4.33632812 7.1875 4.25 C5.96933594 4.12818359 5.96933594 4.12818359 4.7265625 4.00390625 C2.5625 3.6875 2.5625 3.6875 0.5625 2.6875 C-3.60638494 2.31804193 -7.784457 2.17613937 -11.96630859 2.02001953 C-14.03450839 1.93860193 -16.10081614 1.83479049 -18.16796875 1.73046875 C-25.5152779 1.45036606 -30.73191248 1.72493639 -37.4375 4.6875 C-39.64306641 4.27832031 -39.64306641 4.27832031 -41.4375 3.6875 C-27.8796604 -1.89513983 -14.42143708 -2.61874773 0 0 Z " fill="#E05558" transform="translate(149.4375,105.3125)"/>
<path d="M0 0 C1.32 0 2.64 0 4 0 C4.33 1.32 4.66 2.64 5 4 C6.66611905 4.042721 8.33382885 4.04063832 10 4 C10.33 3.67 10.66 3.34 11 3 C13.33297433 2.95907063 15.66705225 2.95758277 18 3 C15.51541618 4.65638921 13.40948793 5.73731247 10.6875 6.875 C6.78542346 8.57100059 3.45140393 10.52206897 0 13 C-0.33 11.35 -0.66 9.7 -1 8 C-2.98 8.66 -4.96 9.32 -7 10 C-7.33 9.34 -7.66 8.68 -8 8 C-7.34 8 -6.68 8 -6 8 C-5.67 7.01 -5.34 6.02 -5 5 C-4.34 5 -3.68 5 -3 5 C-2.67 4.01 -2.34 3.02 -2 2 C-1.34 2 -0.68 2 0 2 C0 1.34 0 0.68 0 0 Z " fill="#F60407" transform="translate(108,110)"/>
<path d="M0 0 C3.465 1.485 3.465 1.485 7 3 C6 5 6 5 4 6 C1.83333333 7.83333333 1.83333333 7.83333333 0 10 C0 10.99 0 11.98 0 13 C-3.3125 12.375 -3.3125 12.375 -7 11 C-8.9375 7.875 -8.9375 7.875 -10 5 C-9.34 4.67 -8.68 4.34 -8 4 C-7.67 3.01 -7.34 2.02 -7 1 C-6.401875 1.165 -5.80375 1.33 -5.1875 1.5 C-2.88655664 2.1114124 -2.88655664 2.1114124 0 2 C0 1.34 0 0.68 0 0 Z " fill="#F60408" transform="translate(142,176)"/>
<path d="M0 0 C0.99 0 1.98 0 3 0 C3 3.96 3 7.92 3 12 C3.99 12.33 4.98 12.66 6 13 C7.73849177 13.83502361 9.46697193 14.6910637 11.1875 15.5625 C12.08855469 16.01753906 12.98960938 16.47257812 13.91796875 16.94140625 C14.60503906 17.29074219 15.29210937 17.64007813 16 18 C16 18.33 16 18.66 16 19 C5.31578947 17.89473684 5.31578947 17.89473684 2 16 C-0.17868158 10.94084999 -0.23072442 5.42202394 0 0 Z " fill="#EB565B" transform="translate(90,234)"/>
<path d="M0 0 C5.00974482 5.00974482 5.06085038 12.16257036 5.1875 18.875 C5.13224312 25.22954105 4.60063228 30.59905159 1 36 C1 34.02 1 32.04 1 30 C1.66 30 2.32 30 3 30 C2.85982174 27.02046641 2.71313658 24.04150696 2.5625 21.0625 C2.52318359 20.21236328 2.48386719 19.36222656 2.44335938 18.48632812 C2.40146484 17.67744141 2.35957031 16.86855469 2.31640625 16.03515625 C2.27974854 15.2862915 2.24309082 14.53742676 2.20532227 13.76586914 C2.18228937 11.97538674 2.18228937 11.97538674 1 11 C0.76636119 9.15108054 0.58696365 7.29511969 0.4375 5.4375 C0.35371094 4.42558594 0.26992187 3.41367188 0.18359375 2.37109375 C0.12300781 1.58863281 0.06242188 0.80617187 0 0 Z " fill="#EA7476" transform="translate(168,197)"/>
<path d="M0 0 C2.06260551 2.06260551 2.82499969 3.64193483 4.0625 6.25 C7.57789398 12.68970401 13.08124945 16.32169101 20.0625 18.375 C21.5165625 18.684375 21.5165625 18.684375 23 19 C23 19.33 23 19.66 23 20 C17.34605369 20.34615998 13.96993194 19.43425238 9 17 C9 16.34 9 15.68 9 15 C8.13375 14.938125 8.13375 14.938125 7.25 14.875 C3.70327826 13.49571932 2.74563414 11.31068543 1 8 C0.41300952 5.29790331 0.19119815 2.77237324 0 0 Z " fill="#E85B5F" transform="translate(97,227)"/>
<path d="M0 0 C0.66 0 1.32 0 2 0 C2 0.66 2 1.32 2 2 C17.18 2 32.36 2 48 2 C48 2.33 48 2.66 48 3 C31.5 3 15 3 -2 3 C-1.34 2.01 -0.68 1.02 0 0 Z " fill="#525251" transform="translate(160,249)"/>
<path d="M0 0 C0.99 0.33 1.98 0.66 3 1 C3.66 4.3 4.32 7.6 5 11 C4.01 11.495 4.01 11.495 3 12 C2.01 9.03 1.02 6.06 0 3 C-1.32 3 -2.64 3 -4 3 C-3.67 3.804375 -3.34 4.60875 -3 5.4375 C-1.79282865 9.73804795 -1.82278647 13.56966181 -2 18 C-2.33 18 -2.66 18 -3 18 C-3.99 13.05 -4.98 8.1 -6 3 C-4.02 2.01 -2.04 1.02 0 0 Z " fill="#E57A7B" transform="translate(92,216)"/>
<path d="M0 0 C0.33 0.99 0.66 1.98 1 3 C0.34 2.67 -0.32 2.34 -1 2 C-0.67 1.34 -0.34 0.68 0 0 Z M3 1 C3.66 1.33 4.32 1.66 5 2 C5 2.99 5 3.98 5 5 C5.99 5.33 6.98 5.66 8 6 C6.90554162 6.86657116 5.79902219 7.71792724 4.6875 8.5625 C4.07261719 9.03816406 3.45773438 9.51382813 2.82421875 10.00390625 C2.22222656 10.33261719 1.62023437 10.66132813 1 11 C0.01 10.67 -0.98 10.34 -2 10 C-2.33 8.02 -2.66 6.04 -3 4 C0 4 0 4 3 5 C3 3.68 3 2.36 3 1 Z " fill="#F12C2C" transform="translate(153,239)"/>
<path d="M0 0 C3.34373475 0.55728913 6.03312999 1.35173889 9 3 C9 2.01 9 1.02 9 0 C10.32 0 11.64 0 13 0 C13.33 0.99 13.66 1.98 14 3 C13.01 3.495 13.01 3.495 12 4 C12.66 5.65 13.32 7.3 14 9 C10.40241608 7.67726488 7.36262865 6.0805802 4.1875 3.9375 C3.39730469 3.41027344 2.60710937 2.88304687 1.79296875 2.33984375 C1.20128906 1.89769531 0.60960938 1.45554688 0 1 C0 0.67 0 0.34 0 0 Z " fill="#F02E32" transform="translate(121,178)"/>
<path d="M0 0 C4.75 0.875 4.75 0.875 7 2 C7 1.34 7 0.68 7 0 C7.66 0.33 8.32 0.66 9 1 C8.67 1.99 8.34 2.98 8 4 C8.78375 4.103125 9.5675 4.20625 10.375 4.3125 C13 5 13 5 15 8 C15 8.99 15 9.98 15 11 C11.43503982 9.37879192 8.40991178 7.2405574 5.25 4.9375 C3.77273437 3.86822266 3.77273437 3.86822266 2.265625 2.77734375 C1.51796875 2.19082031 0.7703125 1.60429687 0 1 C0 0.67 0 0.34 0 0 Z " fill="#ED6767" transform="translate(135,187)"/>
<path d="M0 0 C0.33 0 0.66 0 1 0 C1.33 3.3 1.66 6.6 2 10 C-3.75 12 -3.75 12 -6 12 C-6.66 8.7 -7.32 5.4 -8 2 C-7.34 2 -6.68 2 -6 2 C-6 3.32 -6 4.64 -6 6 C-5.34 6 -4.68 6 -4 6 C-4 6.66 -4 7.32 -4 8 C-2.68 8 -1.36 8 0 8 C0 5.36 0 2.72 0 0 Z " fill="#E56A6E" transform="translate(165,129)"/>
<path d="M0 0 C1.28229589 2.56459177 0.75046829 3.24545532 -0.0625 5.9375 C-1.4490919 11.57569486 -0.34993453 16.44450021 1 22 C-0.984375 21.07421875 -0.984375 21.07421875 -3 19 C-3.52339018 15.93166378 -3.37472825 12.91391602 -3.25 9.8125 C-3.23195313 8.96751953 -3.21390625 8.12253906 -3.1953125 7.25195312 C-3.14820586 5.16748427 -3.07646233 3.08359856 -3 1 C-2.01 0.67 -1.02 0.34 0 0 Z " fill="#E65E63" transform="translate(106,125)"/>
<path d="M0 0 C5.41028673 1.6907146 11.39988925 5.16321059 14.23828125 10.1953125 C14.61533203 11.08863281 14.61533203 11.08863281 15 12 C13.35 12.33 11.7 12.66 10 13 C10 11.68 10 10.36 10 9 C9.34 9 8.68 9 8 9 C8 8.34 8 7.68 8 7 C7.34 7 6.68 7 6 7 C5.67 6.34 5.34 5.68 5 5 C4.34 4.690625 3.68 4.38125 3 4.0625 C1 3 1 3 0 0 Z " fill="#EB7071" transform="translate(148,178)"/>
<path d="M0 0 C0.33 0 0.66 0 1 0 C2.19287411 3.87684087 3 6.91621923 3 11 C1.68 11 0.36 11 -1 11 C-1 10.34 -1 9.68 -1 9 C-1.66 9 -2.32 9 -3 9 C-3 7.02 -3 5.04 -3 3 C-2.01 2.67 -1.02 2.34 0 2 C0 1.34 0 0.68 0 0 Z " fill="#F90206" transform="translate(162,126)"/>
<path d="M0 0 C1.32 0 2.64 0 4 0 C6.15758273 5.24955168 6.24042211 9.80810284 6.125 15.375 C6.11597656 16.20644531 6.10695312 17.03789062 6.09765625 17.89453125 C6.0742622 19.92981337 6.03839725 21.96494564 6 24 C5.67 24 5.34 24 5 24 C4.96261719 23.154375 4.92523438 22.30875 4.88671875 21.4375 C4.49418617 14.66438876 3.75568646 9.20029454 1 3 C0.67 2.01 0.34 1.02 0 0 Z " fill="#F0898F" transform="translate(152,201)"/>
<path d="M0 0 C0.66 0.33 1.32 0.66 2 1 C-1.18004585 4.18004585 -3.10419728 4.95235092 -7.671875 5.1953125 C-9.03138796 5.18211335 -10.39083332 5.15840107 -11.75 5.125 C-12.44738281 5.11597656 -13.14476562 5.10695312 -13.86328125 5.09765625 C-15.57566958 5.07419888 -17.28788004 5.03833104 -19 5 C-19 4.67 -19 4.34 -19 4 C-17.79601562 3.79503906 -16.59203125 3.59007812 -15.3515625 3.37890625 C-13.77601308 3.10693641 -12.20049379 2.83479193 -10.625 2.5625 C-9.8309375 2.42779297 -9.036875 2.29308594 -8.21875 2.15429688 C-3.98605017 1.48582411 -3.98605017 1.48582411 0 0 Z " fill="#E36B6B" transform="translate(142,243)"/>
<path d="M0 0 C0.33 0 0.66 0 1 0 C1.05390357 2.93774463 1.0936255 5.87450232 1.125 8.8125 C1.14175781 9.64587891 1.15851563 10.47925781 1.17578125 11.33789062 C1.18222656 12.14033203 1.18867188 12.94277344 1.1953125 13.76953125 C1.20578613 14.50792236 1.21625977 15.24631348 1.22705078 16.00708008 C1 18 1 18 -1 21 C-1.38499891 22.65549531 -1.72793135 24.3222433 -2 26 C-2.66 25.67 -3.32 25.34 -4 25 C-3.525625 23.845 -3.05125 22.69 -2.5625 21.5 C-0.20133866 14.56130417 -0.25833567 7.26012318 0 0 Z " fill="#DE3C3D" transform="translate(158,209)"/>
<path d="M0 0 C6.6 0.33 13.2 0.66 20 1 C20 1.99 20 2.98 20 4 C18.80761719 3.855625 17.61523438 3.71125 16.38671875 3.5625 C14.82032354 3.37490776 13.25391668 3.18741283 11.6875 3 C10.90181641 2.90460938 10.11613281 2.80921875 9.30664062 2.7109375 C8.54931641 2.62070313 7.79199219 2.53046875 7.01171875 2.4375 C6.31522217 2.35371094 5.61872559 2.26992187 4.90112305 2.18359375 C2.82064322 1.95193799 2.82064322 1.95193799 0 2 C0 1.34 0 0.68 0 0 Z " fill="#EC8C8E" transform="translate(128,112)"/>
<path d="M0 0 C5.41390868 0.46671627 9.20517932 1.24297811 14 4 C13.67 5.32 13.34 6.64 13 8 C12.67 6.68 12.34 5.36 12 4 C11.38511719 3.96261719 10.77023438 3.92523438 10.13671875 3.88671875 C9.32847656 3.82097656 8.52023438 3.75523438 7.6875 3.6875 C6.88699219 3.62949219 6.08648437 3.57148437 5.26171875 3.51171875 C2.63727666 2.91793306 1.69179328 2.04219706 0 0 Z " fill="#E77170" transform="translate(149,106)"/>
<path d="M0 0 C3.25 0.0625 3.25 0.0625 7 1 C8.8544092 3.2231534 9.78559244 5.32830337 11 8 C6.40378078 6.5129879 3.53027653 4.20187872 0 1 C0 0.67 0 0.34 0 0 Z " fill="#EA5657" transform="translate(105,167)"/>
<path d="M0 0 C0.66 0 1.32 0 2 0 C2.66 2.64 3.32 5.28 4 8 C1.525 7.01 1.525 7.01 -1 6 C-0.34 5.67 0.32 5.34 1 5 C0.67 3.35 0.34 1.7 0 0 Z M-1 2 C-1 5 -1 5 -3 8 C-3.66 7.67 -4.32 7.34 -5 7 C-3.68 5.35 -2.36 3.7 -1 2 Z " fill="#F90309" transform="translate(153,237)"/>
<path d="M0 0 C0.99 0.33 1.98 0.66 3 1 C3.144375 1.763125 3.28875 2.52625 3.4375 3.3125 C3.9632594 6.08172908 3.9632594 6.08172908 5 9 C2.625 8.3125 2.625 8.3125 0 7 C-1.3125 4.375 -1.3125 4.375 -2 2 C-1.34 1.34 -0.68 0.68 0 0 Z " fill="#F0272A" transform="translate(116,169)"/>
<path d="M0 0 C2.49361571 1.20381448 4.68143083 2.45428722 7 4 C7 5.32 7 6.64 7 8 C7.99 8.33 8.98 8.66 10 9 C9.67 10.98 9.34 12.96 9 15 C8.7215625 14.42378906 8.443125 13.84757813 8.15625 13.25390625 C7.03502519 11.06827546 5.81187528 9.01330265 4.5 6.9375 C3.86578125 5.93009766 3.86578125 5.93009766 3.21875 4.90234375 C2.16420789 3.25631168 1.08436165 1.62654248 0 0 Z " fill="#F08686" transform="translate(148,116)"/>
<path d="M0 0 C-2.51382212 1.67588141 -4.82947288 2.94030311 -7.5625 4.1875 C-8.34753906 4.55230469 -9.13257812 4.91710937 -9.94140625 5.29296875 C-10.62074219 5.52628906 -11.30007812 5.75960937 -12 6 C-12.66 5.67 -13.32 5.34 -14 5 C-13.67 4.01 -13.34 3.02 -13 2 C-8.60470084 0.01165038 -4.77962147 -0.19118486 0 0 Z " fill="#ED7978" transform="translate(126,113)"/>
<path d="M0 0 C2.375 0.3125 2.375 0.3125 5 1 C7 4 7 4 7 7 C3.17053157 5.54744301 1.87949705 3.57104439 0 0 Z " fill="#E64347" transform="translate(143,191)"/>
<path d="M0 0 C1.48280196 0.78483659 2.9611498 1.57809334 4.4375 2.375 C5.67306641 3.03628906 5.67306641 3.03628906 6.93359375 3.7109375 C9 5 9 5 10 7 C6.7 6.01 3.4 5.02 0 4 C0 2.68 0 1.36 0 0 Z " fill="#EC686D" transform="translate(116,157)"/>
<path d="M0 0 C1.14926266 0.95421808 2.29430541 1.91352045 3.4375 2.875 C4.07558594 3.40867188 4.71367188 3.94234375 5.37109375 4.4921875 C7 6 7 6 8 8 C3.25 7.125 3.25 7.125 1 6 C0.375 2.9375 0.375 2.9375 0 0 Z " fill="#EB6B6E" transform="translate(108,149)"/>
<path d="M0 0 C-1.74468372 0.70088156 -3.49601161 1.38524009 -5.25 2.0625 C-6.22453125 2.44535156 -7.1990625 2.82820313 -8.203125 3.22265625 C-11.04007395 4.01113787 -12.29409552 4.02437812 -15 3 C-4.44267516 -1.34713376 -4.44267516 -1.34713376 0 0 Z " fill="#EA7E80" transform="translate(123,106)"/>
<path d="M0 0 C2.74146784 2.74146784 4.21293716 5.54912004 6 9 C5.67 9.66 5.34 10.32 5 11 C3.0625 10 3.0625 10 1 8 C0.33450549 5.30075428 0.18319237 2.79368363 0 0 Z " fill="#EB7473" transform="translate(97,227)"/>
<path d="M0 0 C4.55737263 0.43820891 7.57653445 0.85041169 11 4 C3.375 3.125 3.375 3.125 0 2 C0 1.34 0 0.68 0 0 Z " fill="#E87D7C" transform="translate(95,249)"/>
<path d="M0 0 C3 3.625 3 3.625 3 7 C2.01 7.66 1.02 8.32 0 9 C-1.125 2.25 -1.125 2.25 0 0 Z " fill="#F4494C" transform="translate(161,235)"/>
<path d="M0 0 C2.375 0.25 2.375 0.25 5 1 C6.3125 3.0625 6.3125 3.0625 7 5 C5.35 5.33 3.7 5.66 2 6 C2 4.68 2 3.36 2 2 C1.34 2 0.68 2 0 2 C0 1.34 0 0.68 0 0 Z " fill="#E83D3E" transform="translate(156,185)"/>
<path d="M0 0 C0.99 0.33 1.98 0.66 3 1 C0.25 5.875 0.25 5.875 -2 7 C-2 5.35 -2 3.7 -2 2 C-1.34 2 -0.68 2 0 2 C0 1.34 0 0.68 0 0 Z " fill="#E9383A" transform="translate(110,116)"/>
<path d="M0 0 C0.33 1.32 0.66 2.64 1 4 C0.01 4 -0.98 4 -2 4 C-2.33 4.99 -2.66 5.98 -3 7 C-3.33 5.02 -3.66 3.04 -4 1 C-2.68 0.67 -1.36 0.34 0 0 Z " fill="#ED070F" transform="translate(92,218)"/>
<path d="M0 0 C0.99 0 1.98 0 3 0 C3 1.32 3 2.64 3 4 C3.66 4 4.32 4 5 4 C5 4.66 5 5.32 5 6 C2.525 5.01 2.525 5.01 0 4 C0 2.68 0 1.36 0 0 Z " fill="#E74B4B" transform="translate(92,149)"/>
<path d="M0 0 C3.68754757 0.49831724 5.60490662 1.10067643 8 4 C7.01 4.495 7.01 4.495 6 5 C3.98079663 3.69593116 1.98075027 2.36176581 0 1 C0 0.67 0 0.34 0 0 Z " fill="#E9565C" transform="translate(121,178)"/>
<path d="M0 0 C0.93065133 2.60582371 1.14917407 3.64198224 0.0625 6.25 C-0.4634375 7.11625 -0.4634375 7.11625 -1 8 C-1.66 7.67 -2.32 7.34 -3 7 C-1.125 1.125 -1.125 1.125 0 0 Z " fill="#E76365" transform="translate(95,120)"/>
<path d="" fill="#FFFFFF" transform="translate(0,0)"/>
<path d="" fill="#FFFFFF" transform="translate(0,0)"/>
<path d="" fill="#FFFFFF" transform="translate(0,0)"/>
<path d="" fill="#FFFFFF" transform="translate(0,0)"/>
<path d="" fill="#FFFFFF" transform="translate(0,0)"/>
<path d="" fill="#FFFFFF" transform="translate(0,0)"/>
<path d="" fill="#EDEDED" transform="translate(0,0)"/>
<path d="" fill="#FFFFFF" transform="translate(0,0)"/>
<path d="" fill="#FFFFFF" transform="translate(0,0)"/>
<path d="" fill="#FFFFFF" transform="translate(0,0)"/>
<path d="" fill="#FFFFFF" transform="translate(0,0)"/>
<path d="" fill="#FFFFFF" transform="translate(0,0)"/>
<path d="" fill="#FFFFFF" transform="translate(0,0)"/>
<path d="" fill="#FFFFFF" transform="translate(0,0)"/>
<path d="" fill="#FFFFFF" transform="translate(0,0)"/>
<path d="" fill="#FFFFFF" transform="translate(0,0)"/>
<path d="" fill="#FFFFFF" transform="translate(0,0)"/>
<path d="" fill="#FFFFFF" transform="translate(0,0)"/>
<path d="" fill="#FFFFFF" transform="translate(0,0)"/>
<path d="" fill="#FFFFFF" transform="translate(0,0)"/>
</svg>
